<svg width="139" height="20" viewBox="0 0 139 20" fill="none" xmlns="http://www.w3.org/2000/svg">
<g clip-path="url(#clip0_493_10168)">
<path d="M53.0671 2.87427V8.08168H47.156V2.87427H43.9189V16.5261H47.156V11.0372H53.0671V16.5261H56.3041V2.87427H56.1634H53.0671ZM68.1967 2.87427L64.8189 8.29279L61.3708 2.87427H57.5708L63.2004 11.8113V16.5261H66.4374V11.8113L71.9967 2.87427H71.7152H68.1967ZM82.4115 2.87427V12.8669C82.4115 13.0545 82.3529 13.2187 82.2356 13.3595C82.1183 13.5002 81.9658 13.5706 81.7782 13.5706H76.5708V2.87427H73.2634V16.5261H82.9041C83.7486 16.5261 84.4171 16.2798 84.9097 15.7872C85.4023 15.2946 85.6486 14.6027 85.6486 13.7113V2.87427H82.4115ZM98.3152 2.87427H88.7449V16.5261H91.9819V5.82983H97.1893C97.4239 5.82983 97.5998 5.9002 97.7171 6.04094C97.8344 6.18168 97.893 6.34587 97.893 6.53353V16.5261H101.13V5.68909C101.13 4.79773 100.86 4.10575 100.321 3.61316C99.7813 3.12057 99.1127 2.87427 98.3152 2.87427ZM113.656 2.87427H104.086V16.5261H113.656C114.5 16.5261 115.181 16.2798 115.697 15.7872C116.213 15.2946 116.471 14.6027 116.471 13.7113V5.68909C116.471 4.79773 116.224 4.10575 115.732 3.61316C115.239 3.12057 114.547 2.87427 113.656 2.87427ZM113.234 6.53353V12.8669C113.234 13.0545 113.163 13.2187 113.023 13.3595C112.882 13.5002 112.718 13.5706 112.53 13.5706H107.323V5.82983H112.53C112.718 5.82983 112.882 5.9002 113.023 6.04094C113.163 6.18168 113.234 6.34587 113.234 6.53353ZM122.1 2.87427C121.209 2.87427 120.517 3.12057 120.024 3.61316C119.532 4.10575 119.286 4.79773 119.286 5.68909V16.5261H122.523V12.3039H128.434V16.5261H131.671V2.87427H122.1ZM128.504 5.82983V9.34834H122.593V6.53353C122.593 6.34587 122.652 6.18168 122.769 6.04094C122.886 5.9002 123.062 5.82983 123.297 5.82983H128.504ZM134.837 2.87427H138.145V16.5261H134.837V2.87427ZM18.5856 19.2002C21.9165 19.2002 25.001 18.778 27.8393 17.9335C30.6776 17.0891 32.9411 15.9397 34.63 14.4854C36.3189 13.0311 37.1516 11.436 37.1282 9.7002C37.1047 7.96439 36.2603 6.36933 34.5948 4.91501C32.9294 3.46069 30.6776 2.31131 27.8393 1.46686C25.001 0.622417 21.9047 0.200195 18.5504 0.200195C15.1961 0.200195 12.0998 0.622417 9.26152 1.46686C6.42324 2.31131 4.17139 3.46069 2.50596 4.91501C0.840529 6.36933 0.0078125 7.96439 0.0078125 9.7002C0.0078125 11.436 0.840529 13.0311 2.50596 14.4854C4.17139 15.9397 6.42324 17.0891 9.26152 17.9335C12.0998 18.778 15.2078 19.2002 18.5856 19.2002ZM22.0337 14.5558C22.0337 14.5558 22.0103 14.5792 21.9634 14.6261C21.7288 15.2829 21.4942 15.7755 21.2597 16.1039C20.8844 16.7138 20.4621 17.136 19.993 17.3706C19.6177 17.6051 19.2189 17.7224 18.7967 17.7224H18.5856C15.2547 17.7224 12.1584 17.3002 9.2967 16.4558L9.22633 16.3854C8.94485 16.2916 8.80411 16.186 8.80411 16.0687C8.80411 15.9514 8.85102 15.8459 8.94485 15.752L9.08559 15.6113C10.493 14.4385 12.5103 13.3595 15.1374 12.3743C16.8263 11.6706 18.2807 11.2014 19.5004 10.9669C20.4856 10.7323 21.2362 10.7558 21.7523 11.0372C22.7374 11.5533 22.8313 12.7261 22.0337 14.5558ZM31.4634 4.98538C31.5103 4.84464 31.5924 4.76254 31.7097 4.73908C31.8269 4.71563 31.956 4.75081 32.0967 4.84464C34.3955 6.29896 35.5448 7.91748 35.5448 9.7002C35.5448 11.2953 34.6066 12.7613 32.73 14.0983C30.8535 15.4354 28.3905 16.4088 25.3411 17.0187C24.9658 17.1125 24.7313 17.1125 24.6374 17.0187C24.5436 16.9249 24.5436 16.8311 24.6374 16.7372L24.7782 16.4558C26.1856 14.8138 27.5695 12.6792 28.93 10.052C29.8214 8.36316 30.5955 6.7681 31.2523 5.26686L31.4634 4.98538ZM15.1374 4.84464C15.1374 4.79773 15.1374 4.75081 15.1374 4.7039C15.4189 4.09402 15.6535 3.60143 15.8411 3.22612C16.2165 2.61625 16.6621 2.19402 17.1782 1.95946C17.6004 1.7718 18.0226 1.67797 18.4448 1.67797H18.5856C21.9165 1.67797 25.0128 2.10019 27.8745 2.94464L27.9448 3.01501C28.2263 3.10884 28.3671 3.21439 28.3671 3.33168C28.3671 3.44896 28.3202 3.55452 28.2263 3.64834L28.0856 3.78908C26.772 4.8681 24.7782 5.94711 22.1041 7.02612C20.4152 7.72983 18.9609 8.19896 17.7411 8.43353C16.6621 8.57427 15.8646 8.52736 15.3486 8.29279C14.4103 7.82365 14.3399 6.67427 15.1374 4.84464ZM11.7597 2.38168C12.135 2.28785 12.3578 2.27612 12.4282 2.34649C12.4986 2.41686 12.5103 2.52242 12.4634 2.66316L12.3226 2.94464C10.9152 4.58662 9.50781 6.72118 8.1004 9.34834C7.20905 11.0372 6.45843 12.6323 5.84855 14.1335L5.70781 14.415C5.6609 14.5558 5.56707 14.6378 5.42633 14.6613C5.28559 14.6848 5.14485 14.6496 5.00411 14.5558C2.70534 13.1014 1.55596 11.4829 1.55596 9.7002C1.55596 8.10513 2.49423 6.63908 4.37078 5.30205C6.24732 3.96501 8.71028 2.99155 11.7597 2.38168Z" fill="#002C5F"/>
</g>
<defs>
<clipPath id="clip0_493_10168">
<rect width="138.08" height="19" fill="white" transform="matrix(1 0 0 -1 0 19.2002)"/>
</clipPath>
</defs>
</svg>
