<svg width="312" height="191" viewBox="0 0 312 191" fill="none" xmlns="http://www.w3.org/2000/svg">
<path fill-rule="evenodd" clip-rule="evenodd" d="M300.004 103.074C341.796 -16.7688 262.652 -1.83791 241.331 3.7067C204.928 13.1748 170.214 29.4952 142.433 42.5733C63.2449 79.9415 21.2325 117.541 7.24311 131.9C5.57587 133.698 4.27303 135.02 3.44492 136.082C1.4354 138.494 0 141.041 0 144.529C0 148.411 2.84862 151.626 8.41346 153.901C8.84408 154.106 10.2353 154.8 10.7543 154.978C71.1836 177.687 143.372 190.97 220.971 190.97C221.6 190.97 223.079 191.038 225.166 190.97C234.463 190.629 244.842 188.123 253.211 183.027C280.936 165.985 293.004 123.154 300.004 103.074Z" fill="#F6F3F2"></path>
</svg>
